<?xml version="1.0" encoding="utf-8"?>
<!-- Generator: Adobe Illustrator 26.4.1, SVG Export Plug-In . SVG Version: 6.00 Build 0)  -->
<svg version="1.1" id="Layer_1" xmlns="http://www.w3.org/2000/svg" xmlns:xlink="http://www.w3.org/1999/xlink" x="0px" y="0px"
	 viewBox="0 0 200 200" style="enable-background:new 0 0 200 200;" xml:space="preserve">
<style type="text/css">
	.st0{fill:#020202;}
	.st1{fill:#050505;}
</style>
<path class="st0" d="M87.5,20.3c-32.2,0-58.3,26-58.3,58.3c0,32.2,26,58.2,58.3,58.2c32.2,0,58.2-26.1,58.2-58.2
	S119.6,20.3,87.5,20.3z M87.5,124C62.4,124,42,103.7,42,78.6s20.3-45.4,45.5-45.4c25.1,0,45.4,20.3,45.4,45.4S112.5,124,87.5,124z"
	/>
<path class="st0" d="M87.5,33.3C62.3,33.3,42,53.6,42,78.6S62.4,124,87.5,124s45.4-20.3,45.4-45.4S112.5,33.3,87.5,33.3z
	 M87.4,122.1c-24,0-43.5-19.5-43.5-43.5c0-24,19.5-43.5,43.5-43.5S131,54.5,131,78.6C131,102.6,111.5,122.1,87.4,122.1z"/>
<rect x="135.1" y="106.5" transform="matrix(0.7071 -0.7071 0.7071 0.7071 -55.5114 141.5305)" class="st1" width="15.9" height="62.6"/>
</svg>
